HIERARCHY
ROOT hip
{
  OFFSET 0 0 0
  CHANNELS 6 Xposition Yposition Zposition Zrotation Yrotation Xrotation
  JOINT abdomen
  {
    OFFSET 0 20.6881 -0.73152
    CHANNELS 3 Zrotation Xrotation Yrotation
    JOINT chest
    {
      OFFSET 0 11.7043 -0.48768
      CHANNELS 3 Zrotation Xrotation Yrotation
      JOINT neck
      {
        OFFSET 0 22.1894 -2.19456
        CHANNELS 3 Zrotation Xrotation Yrotation
        JOINT head
        {
          OFFSET -0.24384 7.07133 1.2192
          CHANNELS 3 Zrotation Xrotation Yrotation
          JOINT leftEye
          {
            OFFSET 4.14528 8.04674 8.04672
            CHANNELS 3 Zrotation Xrotation Yrotation
            End Site
            {
              OFFSET 1 0 0
            }
          }
          JOINT rightEye
          {
            OFFSET -3.6576 8.04674 8.04672
            CHANNELS 3 Zrotation Xrotation Yrotation
            End Site
            {
              OFFSET 1 0 0
            }
          }
        }
      }
      JOINT rCollar
      {
        OFFSET -2.68224 19.2634 -4.8768
        CHANNELS 3 Zrotation Xrotation Yrotation
        JOINT rShldr
        {
          OFFSET -8.77824 -1.95073 1.46304
          CHANNELS 3 Zrotation Xrotation Yrotation
          JOINT rForeArm
          {
            OFFSET -28.1742 -1.7115 0.48768
            CHANNELS 3 Zrotation Xrotation Yrotation
            JOINT rHand
            {
              OFFSET -22.5879 0.773209 7.07136
              CHANNELS 3 Zrotation Xrotation Yrotation
              JOINT rThumb1
              {
                OFFSET -1.2192 -0.487915 3.41376
                CHANNELS 3 Zrotation Xrotation Yrotation
                JOINT rThumb2
                {
                  OFFSET -3.37035 -0.52449 3.41376
                  CHANNELS 3 Zrotation Xrotation Yrotation
                  End Site
                  {
                    OFFSET -1.78271 -1.18214 1.43049
                  }
                }
              }
              JOINT rIndex1
              {
                OFFSET -7.75947 0.938293 5.60832
                CHANNELS 3 Zrotation Xrotation Yrotation
                JOINT rIndex2
                {
                  OFFSET -2.54057 -0.884171 1.56538
                  CHANNELS 3 Zrotation Xrotation Yrotation
                  End Site
                  {
                    OFFSET -1.62519 -0.234802 1.16502
                  }
                }
              }
              JOINT rMid1
              {
                OFFSET -8.24714 1.18213 3.41376
                CHANNELS 3 Zrotation Xrotation Yrotation
                JOINT rMid2
                {
                  OFFSET -3.10165 -0.590103 1.0647
                  CHANNELS 3 Zrotation Xrotation Yrotation
                  End Site
                  {
                    OFFSET -2.48547 -0.328903 0.83742
                  }
                }
              }
              JOINT rRing1
              {
                OFFSET -8.82822 0.546677 1.51678
                CHANNELS 3 Zrotation Xrotation Yrotation
                JOINT rRing2
                {
                  OFFSET -2.60934 -0.819778 -0.0198488
                  CHANNELS 3 Zrotation Xrotation Yrotation
                  End Site
                  {
                    OFFSET -2.33842 -0.294052 0.168128
                  }
                }
              }
              JOINT rPinky1
              {
                OFFSET -8.27202 -0.0477905 -0.4584
                CHANNELS 3 Zrotation Xrotation Yrotation
                JOINT rPinky2
                {
                  OFFSET -1.82734 -0.647385 -0.700984
                  CHANNELS 3 Zrotation Xrotation Yrotation
                  End Site
                  {
                    OFFSET -1.69225 -0.51767 -0.607171
                  }
                }
              }
            }
          }
        }
      }
      JOINT lCollar
      {
        OFFSET 2.68224 19.2634 -4.8768
        CHANNELS 3 Zrotation Xrotation Yrotation
        JOINT lShldr
        {
          OFFSET 8.77824 -1.95073 1.46304
          CHANNELS 3 Zrotation Xrotation Yrotation
          JOINT lForeArm
          {
            OFFSET 28.1742 -1.7115 0.48768
            CHANNELS 3 Zrotation Xrotation Yrotation
            JOINT lHand
            {
              OFFSET 22.5879 0.773209 7.07136
              CHANNELS 3 Zrotation Xrotation Yrotation
              JOINT lThumb1
              {
                OFFSET 1.2192 -0.487915 3.41376
                CHANNELS 3 Zrotation Xrotation Yrotation
                JOINT lThumb2
                {
                  OFFSET 3.37035 -0.52449 3.41376
                  CHANNELS 3 Zrotation Xrotation Yrotation
                  End Site
                  {
                    OFFSET 1.78271 -1.18214 1.43049
                  }
                }
              }
              JOINT lIndex1
              {
                OFFSET 7.75947 0.938293 5.60832
                CHANNELS 3 Zrotation Xrotation Yrotation
                JOINT lIndex2
                {
                  OFFSET 2.54057 -0.884171 1.56538
                  CHANNELS 3 Zrotation Xrotation Yrotation
                  End Site
                  {
                    OFFSET 1.62519 -0.234802 1.16502
                  }
                }
              }
              JOINT lMid1
              {
                OFFSET 8.24714 1.18213 3.41376
                CHANNELS 3 Zrotation Xrotation Yrotation
                JOINT lMid2
                {
                  OFFSET 3.10165 -0.590103 1.0647
                  CHANNELS 3 Zrotation Xrotation Yrotation
                  End Site
                  {
                    OFFSET 2.48547 -0.328903 0.83742
                  }
                }
              }
              JOINT lRing1
              {
                OFFSET 8.82822 0.546677 1.51678
                CHANNELS 3 Zrotation Xrotation Yrotation
                JOINT lRing2
                {
                  OFFSET 2.60934 -0.819778 -0.0198488
                  CHANNELS 3 Zrotation Xrotation Yrotation
                  End Site
                  {
                    OFFSET 2.33842 -0.294052 0.168128
                  }
                }
              }
              JOINT lPinky1
              {
                OFFSET 8.27202 -0.0477905 -0.4584
                CHANNELS 3 Zrotation Xrotation Yrotation
                JOINT lPinky2
                {
                  OFFSET 1.82734 -0.647385 -0.700984
                  CHANNELS 3 Zrotation Xrotation Yrotation
                  End Site
                  {
                    OFFSET 1.69225 -0.51767 -0.607171
                  }
                }
              }
            }
          }
        }
      }
    }
  }
  JOINT rButtock
  {
    OFFSET -8.77824 4.35084 1.2192
    CHANNELS 3 Zrotation Xrotation Yrotation
    JOINT rThigh
    {
      OFFSET 0 -1.70687 -2.19456
      CHANNELS 3 Zrotation Xrotation Yrotation
      JOINT rShin
      {
        OFFSET 0 -36.8199 0.73152
        CHANNELS 3 Zrotation Xrotation Yrotation
        JOINT rFoot
        {
          OFFSET 0.73152 -45.1104 -5.12064
          CHANNELS 3 Zrotation Xrotation Yrotation
          End Site
          {
            OFFSET -1.1221 -3.69964 12.103
          }
        }
      }
    }
  }
  JOINT lButtock
  {
    OFFSET 8.77824 4.35084 1.2192
    CHANNELS 3 Zrotation Xrotation Yrotation
    JOINT lThigh
    {
      OFFSET 0 -1.70687 -2.19456
      CHANNELS 3 Zrotation Xrotation Yrotation
      JOINT lShin
      {
        OFFSET 0 -36.8199 0.73152
        CHANNELS 3 Zrotation Xrotation Yrotation
        JOINT lFoot
        {
          OFFSET -0.73152 -45.1104 -5.12064
          CHANNELS 3 Zrotation Xrotation Yrotation
          End Site
          {
            OFFSET 1.1221 -3.69964 12.103
          }
        }
      }
    }
  }
}
MOTION
Frames:	6
Frame Time:	0.03333
-64.0035 59.1805 67.9282 8.902405 -23.463702 -5.85329 -15.318563 13.441355 -85.894916 7.846897 3.943548 78.998417 -14.395812 29.28628 -113.033073 31.723887 32.748083 86.907008 5.783199 -2.591332 -48.243308 2.518118 -0.048192 -2.192443 -157.728899 -4.388173 158.453498 -48.947681 6.523992 19.239919 176.386682 23.407975 -128.819166 -10.601266 37.116628 2.007589 -66.930896 34.652413 40.516111 -122.470509 -1.109719 88.391125 -26.078982 22.212508 12.501403 -179.280963 -20.552982 100.147558 -178.187533 -49.473768 130.550364 43.242982 -29.814461 22.663522 -146.088435 -7.446032 160.840133 -120.178637 57.123645 122.004598 -146.668865 75.450161 -159.56294 -141.153269 20.701821 -127.578956 -0.988865 -6.275728 7.653568 108.629327 -59.344197 -169.724229 11.753866 -55.370207 79.722343 -162.842246 -39.498333 -145.176187 167.602512 -7.672173 -92.082431 138.382925 -0.664642 -65.970203 -7.675973 -33.973545 9.423783 43.547544 48.123953 -48.188414 30.686899 60.469577 -17.156366 177.063897 -13.067967 -122.859939 78.147504 72.362818 -112.987858 -154.413845 59.284906 134.109501 117.565136 -30.103157 96.436976 -106.011879 25.9151 54.868066 133.407612 76.69769 32.762015 164.468818 19.012767 4.875431 30.543112 63.432545 14.985469 -100.565889 20.361009 32.014419 92.612002 52.874459 38.77737 -78.22835 34.122984 147.576773 -35.689932 -47.201786 -110.846074 -21.319541 -75.600478 -101.874467
-64.1822 59.4447 68.3494 9.167539 -24.554411 -4.302434 -14.676217 11.483408 -78.313149 8.028068 2.521281 71.48611 -11.302338 15.906499 -18.416616 23.253355 -19.006456 2.779094 9.907157 -3.602164 -39.882076 6.122292 -0.533571 -9.952364 -143.476523 38.03126 143.78423 -101.708599 33.667291 79.342268 -101.853954 -20.547503 -163.26278 36.585546 -59.367958 24.653483 101.186582 -48.670424 41.186767 -90.873614 28.166168 53.658647 -127.202433 23.148493 103.258243 -174.199541 -19.834676 124.055602 -127.884813 25.735903 119.066745 -73.765348 70.636841 89.009958 61.034168 -86.835683 42.54463 -170.626733 -4.741409 -174.127017 -64.741869 -50.94221 -78.626962 -4.027369 39.820571 38.782488 -0.437917 -12.217344 10.127756 99.989098 -7.769479 -177.638079 -177.417605 -9.043533 147.865814 11.919179 30.468538 -6.627489 -95.496272 -53.129541 -36.993861 30.42774 -24.863196 18.205282 152.666226 -15.816635 -123.454286 -3.392444 4.207946 16.652765 9.332961 27.696435 1.244446 -11.699151 -4.063982 -16.8432 136.753121 -5.537069 175.261464 -28.028639 24.985463 1.619159 154.294321 -9.082873 121.640785 134.759538 -15.178899 68.435112 47.794436 16.918821 44.218942 -110.054856 -7.110096 21.661527 77.67398 12.583191 54.471933 36.098465 46.593447 -131.435178 168.598856 68.50573 -0.0 -119.675782 63.722963 -62.935427 -13.598542 41.425975 16.488723 75.342599 17.161021 8.594414
-64.3352 59.8326 68.70049999999999 8.990329 -24.811928 -3.391394 -16.357868 11.675962 2.714398 5.876428 -8.818104 -9.671582 -12.832257 17.203901 -20.734089 24.163353 -18.363891 4.919705 13.314074 -3.377764 -28.355882 7.960982 -1.113975 -15.906465 8.264269 -62.430478 -3.639212 -157.583608 10.25254 -138.355115 -60.951275 5.480089 -37.841079 48.993386 -65.767127 36.468878 -124.293315 25.786071 76.794076 -157.905483 -17.397145 78.396027 -26.280837 31.218533 20.24535 -82.378103 43.554258 51.835222 5.991783 -1.245949 14.018912 -94.756446 79.342018 75.457531 11.048225 -45.958189 4.048999 -152.044047 -22.493232 -166.795261 -11.980969 -38.532823 -32.283592 -129.792669 -67.724164 -122.381487 5.367143 44.835744 -4.014049 88.217877 11.401545 -122.2182 -174.137647 -10.041426 147.235801 12.19403 32.846101 -5.406073 -10.215744 1.555326 2.65323 136.050297 -23.921663 -120.152929 -58.623808 -71.264049 -9.495137 4.065885 37.503929 -5.442124 166.922006 -38.386 -151.844237 21.603095 66.735909 -12.587809 143.028491 -3.802838 175.594365 -18.87072 0.000464 4.107858 119.193675 -40.756612 90.459674 -24.687551 13.100505 53.991528 -1.087329 -7.678951 1.240455 -43.69242 -48.607618 -36.214248 6.671286 66.479952 27.977172 121.433045 -48.406302 3.947165 -0.633132 6.65538 5.446631 10.91747 -0.893031 85.380381 49.52769 -0.738147 2.065933 37.113692 -64.097105 -40.538842
-64.4075 60.0623 68.975 9.193489 -25.343059 -2.984287 -13.900512 7.798465 -91.876622 5.267199 3.938701 83.081717 -18.429833 28.517241 -87.688019 38.063906 17.079188 62.882032 14.038745 -1.984457 -16.013605 7.080367 -1.381565 -22.055963 -152.702401 19.665044 150.148896 -58.470898 20.359599 38.644839 93.779247 19.477601 -84.484639 -146.28433 63.814327 124.68625 100.903531 -53.108687 42.851738 -113.026258 38.09897 75.51513 -39.128815 42.611128 36.552449 78.227947 -64.380333 46.229232 -116.527782 37.298811 102.736573 -5.809324 40.680604 22.265371 -136.452937 19.627056 161.985311 17.228437 -56.866684 1.086327 -129.636004 15.296614 -135.017711 -61.273016 -44.764815 -79.30376 83.504666 77.264523 -87.265065 112.214168 17.548605 -91.188768 -176.866494 26.295003 140.981682 9.754903 28.911599 -3.180943 -13.876111 -0.820917 3.148122 139.541618 -30.059415 -121.294728 150.821629 -34.775159 -124.861703 9.405937 37.272445 -1.109827 -34.348432 -76.844685 -5.012955 161.778826 -32.819933 -145.170595 61.175592 75.858227 -76.027436 24.868295 -74.98476 44.753422 4.854552 49.668321 -3.565838 74.420491 50.302323 -130.342856 0.231079 -8.057988 -0.261781 -43.031691 -50.590288 -36.349518 -30.377187 69.894091 -53.416722 154.605148 1.114987 -87.58288 -5.4813 5.239225 -0.0 17.597601 3.019302 -80.571028 -43.140378 4.647658 143.398538 96.42495 -38.295846 2.361539
-64.41900000000001 60.0375 69.1682 9.533616 -25.7352 -2.792586 -14.314758 7.039782 -88.770987 5.106302 3.681816 79.575175 -16.734932 21.833724 -44.467697 32.854572 -9.359632 25.093676 11.304254 -0.524783 -5.298728 4.592501 -1.044773 -25.620217 -88.475042 62.68487 87.082373 -109.974299 17.438151 109.746403 -58.442615 -38.307581 -127.956188 125.911124 -66.894287 110.088115 2.41492 1.742846 -2.999436 -96.89553 7.625243 97.075761 -81.882685 45.231088 80.675753 -175.093411 -6.073037 127.528915 -168.453791 -10.314949 126.717255 112.679942 -56.628251 89.318097 -143.423783 -3.351733 173.86542 -156.60222 10.752809 168.31226 -96.757911 -29.91656 -103.263181 -132.181262 26.374076 -148.221598 75.165049 -78.442693 97.800027 -99.072772 40.941768 80.693198 -175.879542 -14.228626 -104.245104 -171.01618 -14.015938 -144.792732 13.322772 24.373421 -6.875295 39.539141 21.372981 -36.930561 -86.829312 -76.449516 -27.24313 165.167753 -30.368732 -112.18456 149.186873 15.008176 -140.810302 91.224962 72.409179 -82.001819 3.967317 14.514526 1.319418 7.399768 62.318455 -19.759217 20.973343 1.735061 2.771536 113.364298 -1.699189 148.126563 1.387821 -7.555614 -1.58696 -42.98496 -54.586316 -129.53613 -80.305534 -10.394879 -69.400264 30.435419 9.503651 176.70021 -0.102999 4.125442 1.431433 11.7377 5.358382 -65.798452 -35.770892 11.215098 90.168549 73.277552 -1.746197 4.26549
-64.4392 59.827799999999996 69.28 9.778638 -25.895342 -2.70041 -14.694673 6.349832 -100.029816 3.741044 4.351394 90.768537 -18.176815 25.532332 -64.64126 37.979076 1.016502 41.533975 6.958261 0.098469 1.619524 2.391474 -0.5383 -25.367342 6.823211 -49.18458 -0.803836 106.882109 56.813446 -70.566437 109.788083 -6.665763 108.185121 -161.913996 51.425233 138.169299 -3.031553 6.608028 -2.467008 27.996968 -22.664453 -8.450266 11.74464 8.441936 -4.263091 90.139686 -48.185945 56.20828 7.272454 -25.549825 16.102778 -158.886419 -0.317265 169.86617 -142.940521 9.405904 172.250019 -51.829558 -87.035066 -73.78718 -145.830492 23.332399 -127.135693 -173.757377 40.485521 -120.167785 -0.073353 -29.206258 14.338964 -70.229519 17.238893 14.4769 97.355255 32.55776 -91.213174 -38.075673 -60.007308 -25.559845 -13.324195 -0.849396 2.755361 42.298401 28.082805 -28.840499 3.263251 24.019875 -9.195757 -12.516867 -11.705942 2.71471 -87.162205 -82.468756 -52.44138 1.90968 26.657032 -11.309517 83.978559 -64.088149 95.815667 -19.490249 3.355267 5.459093 13.895273 5.824353 -0.995056 123.033552 -11.710579 140.446438 -51.426272 20.748979 -47.585754 74.865295 -41.4813 -0.0 -66.145915 42.607728 -2.42613 79.489512 -79.656248 -177.270408 179.007496 72.775558 1.039096 -120.292088 76.98205 -146.621942 -47.781829 -5.566625 -109.764755 -62.914236 -27.439119 -145.853926
